HIERARCHY
ROOT Hips
{
	OFFSET 0.000000 89.005402 0.000000
	CHANNELS 6 Xposition Yposition Zposition Xrotation Yrotation Zrotation
	JOINT Spine
	{
		OFFSET 0.116900 10.681000 0.373400
		CHANNELS 3 Xrotation Yrotation Zrotation
		JOINT Spine1
		{
			OFFSET 0.000000 13.840401 0.053500
			CHANNELS 3 Xrotation Yrotation Zrotation
			JOINT Spine2
			{
				OFFSET 0.000000 14.712700 -0.366200
				CHANNELS 3 Xrotation Yrotation Zrotation
				JOINT Neck
				{
					OFFSET 0.000000 35.415497 -3.314200
					CHANNELS 3 Xrotation Yrotation Zrotation
					JOINT Head
					{
						OFFSET 0.000000 16.899200 1.218300
						CHANNELS 3 Xrotation Yrotation Zrotation
						JOINT HeadTop_End
						{
							OFFSET 0.000000 22.206207 2.192500
							CHANNELS 3 Xrotation Yrotation Zrotation
							End Site
							{
								OFFSET 0.000000 22.314178 0.000000
							}
						}
					}
				}
				JOINT LeftShoulder
				{
					OFFSET 12.896400 26.716293 -4.548400
					CHANNELS 3 Xrotation Yrotation Zrotation
					JOINT LeftArm
					{
						OFFSET 19.027000 -4.857010 -1.718400
						CHANNELS 3 Xrotation Yrotation Zrotation
						JOINT LeftForeArm
						{
							OFFSET 24.179897 0.000000 0.000000
							CHANNELS 3 Xrotation Yrotation Zrotation
							JOINT LeftHand
							{
								OFFSET 27.156403 0.000000 0.000000
								CHANNELS 3 Xrotation Yrotation Zrotation
								JOINT LeftHandIndex1
								{
									OFFSET 16.441200 0.000000 0.000000
									CHANNELS 3 Xrotation Yrotation Zrotation
									JOINT LeftHandIndex2
									{
										OFFSET 4.821899 0.000000 0.000000
										CHANNELS 3 Xrotation Yrotation Zrotation
										JOINT LeftHandIndex3
										{
											OFFSET 6.386497 0.000000 0.000000
											CHANNELS 3 Xrotation Yrotation Zrotation
											JOINT LeftHandIndex4
											{
												OFFSET 5.188988 0.000000 0.000000
												CHANNELS 3 Xrotation Yrotation Zrotation
												End Site
												{
													OFFSET -0.178703 5.185913 0.000177
												}
											}
										}
									}
								}
								JOINT LeftHandThumb1
								{
									OFFSET 6.534897 -5.032593 5.900300
									CHANNELS 3 Xrotation Yrotation Zrotation
									JOINT LeftHandThumb2
									{
										OFFSET 3.818176 -2.204422 2.204423
										CHANNELS 3 Xrotation Yrotation Zrotation
										JOINT LeftHandThumb3
										{
											OFFSET 3.252098 -1.877594 1.877601
											CHANNELS 3 Xrotation Yrotation Zrotation
											JOINT LeftHandThumb4
											{
												OFFSET 5.251778 -3.032120 3.032117
												CHANNELS 3 Xrotation Yrotation Zrotation
												End Site
												{
													OFFSET 0.000023 6.780014 0.000000
												}
											}
										}
									}
								}
							}
						}
					}
				}
				JOINT RightShoulder
				{
					OFFSET -12.896300 26.716293 -4.548400
					CHANNELS 3 Xrotation Yrotation Zrotation
					JOINT RightArm
					{
						OFFSET -19.027000 -4.857010 -1.718400
						CHANNELS 3 Xrotation Yrotation Zrotation
						JOINT RightForeArm
						{
							OFFSET -24.179897 0.000000 0.000000
							CHANNELS 3 Xrotation Yrotation Zrotation
							JOINT RightHand
							{
								OFFSET -27.156403 0.000000 0.000000
								CHANNELS 3 Xrotation Yrotation Zrotation
								JOINT RightHandThumb1
								{
									OFFSET -6.591202 -4.852203 5.988100
									CHANNELS 3 Xrotation Yrotation Zrotation
									JOINT RightHandThumb2
									{
										OFFSET -3.818176 -2.204422 2.204423
										CHANNELS 3 Xrotation Yrotation Zrotation
										JOINT RightHandThumb3
										{
											OFFSET -3.252098 -1.877594 1.877601
											CHANNELS 3 Xrotation Yrotation Zrotation
											JOINT RightHandThumb4
											{
												OFFSET -5.251778 -3.032120 3.032117
												CHANNELS 3 Xrotation Yrotation Zrotation
												End Site
												{
													OFFSET -0.000023 6.780014 0.000000
												}
											}
										}
									}
								}
								JOINT RightHandIndex1
								{
									OFFSET -16.029404 0.000000 0.000000
									CHANNELS 3 Xrotation Yrotation Zrotation
									JOINT RightHandIndex2
									{
										OFFSET -5.213303 0.000000 0.000000
										CHANNELS 3 Xrotation Yrotation Zrotation
										JOINT RightHandIndex3
										{
											OFFSET -6.386528 0.000000 0.000000
											CHANNELS 3 Xrotation Yrotation Zrotation
											JOINT RightHandIndex4
											{
												OFFSET -5.189026 0.000000 0.000000
												CHANNELS 3 Xrotation Yrotation Zrotation
												End Site
												{
													OFFSET 0.236702 5.183624 0.001972
												}
											}
										}
									}
								}
							}
						}
					}
				}
			}
		}
	}
	JOINT LeftUpLeg
	{
		OFFSET 14.073000 -7.904099 -1.463000
		CHANNELS 3 Xrotation Yrotation Zrotation
		JOINT LeftLeg
		{
			OFFSET -0.109806 -34.073280 4.093200
			CHANNELS 3 Xrotation Yrotation Zrotation
			JOINT LeftFoot
			{
				OFFSET 0.109806 -29.899420 -6.319000
				CHANNELS 3 Xrotation Yrotation Zrotation
				JOINT LeftToeBase
				{
					OFFSET 1.551100 -14.988700 20.535801
					CHANNELS 3 Xrotation Yrotation Zrotation
					JOINT LeftToe_End
					{
						OFFSET 0.221200 0.570800 13.248301
						CHANNELS 3 Xrotation Yrotation Zrotation
						End Site
						{
							OFFSET 0.000000 13.262435 0.000000
						}
					}
				}
			}
		}
	}
	JOINT RightUpLeg
	{
		OFFSET -13.839300 -7.904099 -1.463000
		CHANNELS 3 Xrotation Yrotation Zrotation
		JOINT RightLeg
		{
			OFFSET 0.109694 -34.073219 4.093300
			CHANNELS 3 Xrotation Yrotation Zrotation
			JOINT RightFoot
			{
				OFFSET -0.109694 -29.899384 -6.319200
				CHANNELS 3 Xrotation Yrotation Zrotation
				JOINT RightToeBase
				{
					OFFSET -1.551100 -14.988700 20.535801
					CHANNELS 3 Xrotation Yrotation Zrotation
					JOINT RightToe_End
					{
						OFFSET -0.221200 0.570900 13.248299
						CHANNELS 3 Xrotation Yrotation Zrotation
						End Site
						{
							OFFSET 0.000000 13.262440 0.000000
						}
					}
				}
			}
		}
	}
}
MOTION
Frames: 6
Frame Time: 0.033333
7.969558 76.996696 -0.443722 15.000258 -20.675211 3.868638 10.860578 -0.339496 -3.447242 8.484913 0.272497 -1.570224 8.472506 0.348645 -1.594699 -0.850567 0.357447 -8.477062 -44.239094 -4.886951 1.774462 0.000000 0.000001 -0.000000 0.749868 2.294319 -10.554296 -11.420476 -12.045386 -31.237744 -0.000019 -104.819730 -0.000042 28.229401 -8.596514 30.018142 0.179356 1.564360 -13.079355 0.179341 1.564355 -13.079359 0.044973 0.787305 -6.538452 -0.000000 0.000001 0.000002 -1.540034 3.690191 6.142364 3.348262 30.172535 6.257325 -0.362576 12.648720 5.322807 -0.000000 0.000001 0.000000 1.646511 10.994149 10.685822 -20.653678 27.359472 57.282235 0.000077 101.388100 -0.000094 36.302052 1.175622 -5.160921 -1.849245 -3.581793 -6.586143 4.658089 -8.857770 -0.241938 -1.262961 0.025771 -2.107207 0.000000 -0.000000 0.000000 1.190811 -3.896301 33.977729 1.190814 -3.896301 33.977760 0.303883 -2.036965 16.968630 0.000000 0.000000 -0.000000 -47.560981 6.040600 29.352410 41.826661 2.736719 0.207458 -2.064823 2.289142 -19.895731 -2.614737 0.000001 -0.000007 -0.000000 -0.000000 -0.000000 -38.003743 4.228040 -21.388288 42.227573 3.809177 1.146380 -12.178779 -3.311100 20.781610 -9.240462 -0.000004 -0.000008 0.000001 -0.000002 -0.000000 
7.664749 77.359650 -0.667149 14.454892 -23.564221 4.052535 10.366651 -0.216470 -3.523768 8.095653 0.386001 -1.524000 8.080644 0.483415 -1.549444 -1.496698 0.656567 -7.694807 -44.902470 -2.320843 1.078222 -0.000000 -0.000001 -0.000001 0.821623 2.212500 -11.545285 -10.578039 -11.094064 -31.709058 0.000025 -103.448747 0.000032 27.456440 -8.310362 31.680367 0.179359 1.564360 -13.079356 0.179344 1.564353 -13.079362 0.044970 0.787302 -6.538455 -0.000001 -0.000001 0.000001 -1.540035 3.690193 6.142364 3.348277 30.172531 6.257319 -0.362581 12.648737 5.322810 0.000001 0.000001 0.000000 1.610848 9.690866 10.767740 -17.866960 29.839457 57.971101 0.000151 102.485254 -0.000147 37.359653 0.930489 -5.416598 -1.849247 -3.581807 -6.586149 4.658092 -8.857769 -0.241948 -1.262960 0.025772 -2.107201 0.000002 0.000000 -0.000000 1.191479 -3.897266 33.987400 1.191452 -3.897250 33.987322 0.304063 -2.037526 16.973386 -0.000001 -0.000001 -0.000000 -44.598140 6.302067 30.317284 40.971573 5.078365 0.372931 -2.184792 2.531892 -21.602621 -2.594390 -0.000003 -0.000006 -0.000000 0.000000 0.000000 -38.046957 4.461561 -19.646604 40.871370 4.641772 0.310919 -11.331456 -2.529015 20.122888 -9.405278 -0.000003 -0.000000 -0.000000 -0.000001 -0.000000 
7.421840 77.535576 -1.062185 14.615597 -27.140236 4.269325 9.788701 -0.415823 -3.399043 7.662275 0.269634 -1.305092 7.649553 0.392045 -1.329407 -2.313160 1.042916 -6.142016 -45.678171 1.379134 0.196438 -0.000000 0.000002 0.000001 0.890209 1.930546 -11.928718 -10.024150 -8.889443 -32.541723 -0.000164 -102.385690 -0.000189 27.091798 -8.280428 32.788661 0.179360 1.564360 -13.079354 0.179343 1.564352 -13.079361 0.044971 0.787300 -6.538453 -0.000005 0.000001 -0.000002 -1.540034 3.690191 6.142364 3.348267 30.172538 6.257312 -0.362595 12.648728 5.322808 0.000001 -0.000001 -0.000003 1.585323 8.200274 10.860929 -14.244856 32.817587 58.576481 0.000001 104.090198 -0.000007 38.712307 0.724368 -5.673182 -1.998025 -3.581787 -6.586132 4.658098 -8.857758 -0.241945 -1.262953 0.025765 -2.107206 -0.000004 -0.000000 0.000000 1.190816 -3.896319 33.977900 1.190816 -3.896310 33.977913 0.303904 -2.036986 16.968697 0.000000 -0.000003 0.000000 -42.458631 6.379191 31.809820 40.827401 6.892766 0.472772 -2.270944 3.675750 -23.453932 -2.754975 -0.000003 0.000000 -0.000000 0.000000 -0.000000 -39.197199 4.892021 -17.494290 39.473900 5.145874 -0.272881 -10.060958 -0.653950 19.451617 -9.590609 0.000004 0.000003 0.000000 0.000002 0.000000 
7.371418 77.428726 -1.670317 15.735380 -31.522095 4.636344 9.237764 -1.159356 -3.059930 7.306977 -0.238240 -0.913644 7.306820 -0.084805 -0.936511 -3.266364 1.557712 -3.064044 -46.471101 6.788884 -0.623557 -0.000000 -0.000002 -0.000000 0.945323 1.175366 -11.045218 -9.711709 -4.458727 -34.180770 -0.000051 -101.817630 -0.000052 28.173233 -8.980818 33.920765 0.179356 1.564360 -13.079355 0.179342 1.564353 -13.079360 0.044968 0.787299 -6.538449 -0.000004 0.000003 0.000002 -1.540034 3.690188 6.142362 3.348284 30.172555 6.257305 -0.362579 12.648729 5.322801 0.000000 -0.000001 -0.000001 1.522677 6.958443 10.922583 -8.367231 36.236653 57.314877 0.000111 106.701270 -0.000117 39.845555 1.035514 -6.065689 -2.432594 -3.581790 -6.586134 4.658091 -8.857779 -0.241946 -1.262952 0.025772 -2.107201 -0.000005 0.000000 0.000000 1.187771 -3.891793 33.933035 1.187810 -3.891858 33.933544 0.303107 -2.034394 16.946587 0.000000 0.000002 0.000000 -41.674187 6.052430 33.981048 41.934991 6.768573 0.551144 -2.041087 6.870383 -25.603739 -3.723078 -0.000002 -0.000001 0.000000 0.000000 0.000000 -41.686533 5.309556 -14.772897 37.928751 5.640351 -0.744943 -8.165160 1.755919 19.151471 -9.728035 0.000003 0.000002 -0.000000 -0.000001 0.000000 
7.555426 77.116714 -2.519945 17.952659 -36.749987 5.568883 9.018842 -2.801030 -2.677856 7.286472 -1.376695 -0.469520 7.313761 -1.194581 -0.494689 -4.481148 2.307680 1.497478 -48.416499 14.049600 -0.372812 -0.000000 0.000003 0.000001 1.039264 -0.021115 -8.530691 -9.766181 3.177184 -36.144268 0.000095 -101.765673 0.000106 29.517253 -8.521049 37.346645 0.179357 1.564359 -13.079356 0.179338 1.564351 -13.079361 0.044973 0.787299 -6.538453 -0.000003 -0.000000 -0.000002 -1.540035 3.690189 6.142361 3.349491 30.075170 6.247819 -0.364919 12.600170 5.318265 0.000002 -0.000000 -0.000000 1.422849 6.816471 10.874633 0.664304 38.467946 51.891877 0.000007 109.512466 -0.000008 40.324935 3.794133 -6.879085 -2.865775 -3.581791 -6.586130 4.658091 -8.857769 -0.241950 -1.262956 0.025773 -2.107209 -0.000001 0.000001 0.000000 1.201622 -3.912254 34.136551 1.201483 -3.912082 34.134885 0.306673 -2.046089 17.046919 0.000000 -0.000000 0.000000 -41.640655 5.157728 36.447252 44.136327 6.467092 0.531544 -1.928248 11.048781 -27.593507 -4.284771 0.000004 -0.000003 -0.000000 0.000000 0.000000 -45.445073 5.289811 -11.924165 35.822700 6.490994 -0.860255 -5.274193 4.830209 19.710615 -9.829867 0.000002 0.000005 -0.000000 0.000002 0.000000 
8.030544 76.639572 -3.391264 21.161550 -40.757955 7.144638 9.445232 -4.978502 -2.595121 7.810771 -2.856649 -0.280566 7.866686 -2.662500 -0.315928 -5.700204 2.622155 7.912392 -50.033697 21.100153 -0.939483 0.000000 -0.000001 -0.000000 1.277196 -2.846729 -2.559508 -9.920754 14.462862 -38.884462 0.000189 -102.713136 0.000160 31.202329 -7.516106 39.977872 0.179361 1.564364 -13.079355 0.179342 1.564356 -13.079360 0.044975 0.787303 -6.538452 0.000001 -0.000004 -0.000001 -1.540033 3.690194 6.142364 3.380514 26.645690 5.920440 -0.449559 10.889506 5.157388 0.000001 0.000000 0.000001 1.456937 5.287065 10.972282 2.281091 32.635863 51.010547 0.000052 109.659486 -0.000050 37.758652 13.966380 -5.677760 -2.995809 -3.581795 -6.586133 4.658103 -8.857768 -0.241950 -1.262956 0.025796 -2.107199 -0.000001 0.000001 -0.000000 1.172353 -3.868827 33.705146 1.172530 -3.869085 33.707933 0.299131 -2.021324 16.834167 0.000001 -0.000000 0.000001 -43.044641 3.383351 38.037020 47.138609 6.330200 0.400718 -2.514081 14.859199 -27.856962 -3.816608 0.000005 0.000006 0.000000 0.000000 -0.000000 -49.522181 4.392910 -10.179784 33.318988 7.122527 0.181029 -1.816221 8.340333 19.288606 -9.845475 0.000001 0.000003 -0.000000 -0.000001 0.000001 
